<?xml version="1.0" encoding="utf-8"?>
<!-- Generator: Adobe Illustrator 25.0.1, SVG Export Plug-In . SVG Version: 6.00 Build 0)  -->
<svg version="1.1" id="Livello_1" xmlns="http://www.w3.org/2000/svg" xmlns:xlink="http://www.w3.org/1999/xlink" x="0px" y="0px"
	 viewBox="0 0 512 120" style="enable-background:new 0 0 512 120;" xml:space="preserve">
<style type="text/css">
	.st0{fill:#CED4DA;}
	.st1{fill:#DEE2E6;}
	.st2{fill:#F8F9FA;}
</style>
<g>
	<g id="g3_4_" transform="matrix(0.19880617,0,0,0.20133871,-36.476305,-64.350823)">
		<g id="g7_4_">
			<g id="g9_4_">
				<polygon id="polygon11_4_" class="st0" points="470.61,648.31 538.17,786.52 477.16,865.96 229.94,754.97 				"/>
				<polygon id="polygon13_4_" class="st1" points="553.51,540.28 729.96,617.12 652,775.51 480.13,732.07 227.71,617.62 
					427.42,448.1 				"/>
				<polygon id="polygon15_4_" class="st0" points="227.71,482.25 336.97,454.41 376.2,548.82 227.71,617.62 				"/>
				<polygon id="polygon17_4_" class="st2" points="480.01,595.72 227.71,482.25 484.34,369.28 729.34,481.88 				"/>
				<polygon id="polygon19_4_" class="st2" points="477.16,865.96 729.96,754.22 729.96,617.12 477.16,731.21 				"/>
			</g>
		</g>
	</g>
	<g id="text6569_4_">
		<path id="path9222_4_" class="st2" d="M138.95,61.35l-2.14-16.6c-0.84-6.15,5.13-8.02,11.75-8.02c6.99,0,13.89,3.08,17.16,6.53
			l-1.31-11.75c-2.05-1.77-8.2-4.85-16.13-4.85c-15.57,0-24.24,7.55-22.47,20.23C126.73,54.54,132.24,58.74,138.95,61.35
			L138.95,61.35z M165.89,90.81c6.62-2.98,10.16-9.14,8.95-18.46c-1.4-10.35-8.3-14.17-17.9-16.88l1.12,11.56
			c3.26,1.59,5.31,3.92,5.87,7.09L165.89,90.81z M147.9,93.33l-0.84-10.35c-8.48-1.31-15.76-5.97-17.9-9.23l1.59,13.8
			C132.61,88.95,138.11,92.4,147.9,93.33z"/>
		<path id="path9224_4_" class="st2" d="M219.51,93.33c3.45,0,6.25-0.47,8.58-1.12l-0.84-10.07c-2.42,0.75-5.13,1.21-8.02,1.21
			c-11,0-23.59-9.04-25.73-23.87c-2.05-14.92,6.9-22.75,17.81-22.75c3.45,0,6.53,0.56,9.14,1.4l-0.93-10.44
			c-2.52-0.65-5.5-1.03-8.48-1.03c-17.9,0-31.7,13.15-28.72,33.94C185.29,81.68,202.63,93.33,219.51,93.33L219.51,93.33z"/>
		<path id="path9226_4_" class="st2" d="M241.14,93.33l11.37,0c-0.19-0.09-0.56-0.56-0.65-1.31l-4.11-26.86
			c1.49,0.19,3.26,0.37,4.94,0.37c13.33,0,23.68-6.62,21.91-19.58c-1.96-13.89-12.59-19.21-27.78-19.21
			c-6.15,0-13.24,0.93-14.64,1.12l0.84,9.98c1.77-0.28,9.14-1.21,14.27-1.21c8.95,0,15.76,2.8,16.88,10.54
			c0.93,6.62-3.82,8.95-13.05,8.95c-6.99,0-13.99-0.84-15.1-1.12l5.04,37.39C241.14,93.14,241.33,93.24,241.14,93.33L241.14,93.33z
			 M275.33,93.33h12.06c-0.28-0.09-1.59-2.05-2.05-2.61l-10.16-14.45l-9.7,2.8L275.33,93.33z"/>
		<path id="path9228_4_" class="st2" d="M314.61,55.01h12.12l12.36-27.21c0.47-0.56,0.75-0.93,1.12-1.12h-13.35L314.61,55.01z
			 M302.11,55.01h12.49l-20.17-28.33h-13.61c0.47,0.19,1.12,0.75,1.4,1.31L302.11,55.01z M314.46,93.33h11.47
			c-0.19-0.09-0.56-0.56-0.65-1.31l-2.56-18.18h-10.91l2.65,18.65C314.46,93.15,314.74,93.24,314.46,93.33L314.46,93.33z"/>
		<path id="path9230_4_" class="st2" d="M357.12,93.33h11.43c-0.19-0.09-0.56-0.56-0.65-1.31l-2.48-17.07
			c1.68,0.09,3.82,0.09,5.13,0.09c12.77,0,24.43-8.76,22.19-24.71c-2.24-16.04-16.32-23.59-30.02-23.59
			c-5.5,0-12.96,0.93-14.17,1.21l0.84,9.98c3.26-0.47,9.23-0.84,14.45-0.84c8.02,0,17.25,4.48,18.55,14.36
			c1.49,10.82-6.06,13.8-18.27,13.8c-4.85,0-8.3-0.28-10.44-0.56l3.45,27.79C357.22,93.05,357.4,93.24,357.12,93.33z"/>
		<path id="path9232_4_" class="st2" d="M398.52,37.4c0-0.37,0.19-0.19,0.93-0.19h43.45c0.56,0,1.12,0.37,1.31,0.56l-1.31-10.63
			c0,0.28-0.47,0-0.93,0h-43.45c-0.75,0-1.31-0.28-1.31-0.47C397.31,26.86,398.52,37.4,398.52,37.4z M423.42,92.69h11.28
			c-0.09-0.09-0.47-0.56-0.56-1.31l-4.94-37.7h-10.91l5.13,38.07C423.42,92.51,423.7,92.6,423.42,92.69z"/>
		<path id="path9234_4_" class="st2" d="M491.48,93.33h11.73c-0.19-0.09-0.31-0.47-0.68-1.22l-30.53-64.23
			c-0.47-0.65-0.75-1.03-0.65-1.21h-12.77c0.28,0.19,0.65,0.65,0.56,1.31l-7.65,36.54l10.63,0.09l4.66-23.96L491.48,93.33z"/>
	</g>
</g>
</svg>
