<?xml version="1.0" encoding="utf-8"?>
<!-- Generator: Adobe Illustrator 25.0.1, SVG Export Plug-In . SVG Version: 6.00 Build 0)  -->
<svg version="1.1" id="Livello_1" xmlns="http://www.w3.org/2000/svg" xmlns:xlink="http://www.w3.org/1999/xlink" x="0px" y="0px"
	 viewBox="0 0 512 446.18" style="enable-background:new 0 0 512 446.18;" xml:space="preserve">
<style type="text/css">
	.st0{fill:url(#SVGID_1_);}
	.st1{fill:url(#SVGID_2_);}
	.st2{fill:url(#SVGID_3_);}
</style>
<g id="mI8JAU_2_">
	<g>
		<linearGradient id="SVGID_1_" gradientUnits="userSpaceOnUse" x1="-30.9506" y1="27.0484" x2="396.0717" y2="385.3626">
			<stop  offset="0" style="stop-color:#7400B7"/>
			<stop  offset="0.2021" style="stop-color:#6930C2"/>
			<stop  offset="0.3749" style="stop-color:#5E61CD"/>
			<stop  offset="0.5836" style="stop-color:#538FD9"/>
			<stop  offset="0.77" style="stop-color:#4FA7DD"/>
			<stop  offset="0.9973" style="stop-color:#48BFE2"/>
		</linearGradient>
		<path class="st0" d="M458.79,253.14c-0.75-45.78-30.53-89.4-73.05-105.71c-34.24-13.13-69.97-20.41-106.54-22.81
			c-10.29-1.55-10.29-4.93-10.29-15.19c0.04-11.54,1.63-15.23,14.23-22.19c19.06-10.53,25.59-33.41,18.9-53.78
			C295.11,12.35,277.72-0.17,255.55,0c-22.34,0.17-39.5,12.97-45.89,34.23c-6.27,20.87,0.64,43.13,19.81,53.44
			c11.34,6.1,13.06,7.4,13.06,21.75c0,10.05,0,14.57-10.29,15.26c-35.43,2.09-66.64,9.22-100.27,20.61
			c-44.87,15.2-77.83,58.86-78.71,106.43c-0.6,32.66-0.82,65.35,0.13,97.99c0.66,22.63,8.38,42.59,29.49,54.75
			c3.32,1.91,6.65,3.82,10.04,5.59c11.54,6.02,35.32,14.83,42.66,16.85c24.52,6.77,60.79,14.48,79.95,16.18
			c35.57,3.83,56.22,5.54,103.07-3.83c22.73-4.23,33.84-8.36,55.95-13.47c16.62-5.13,20.93-6.35,31.46-10.38
			c5.8-2.31,11.05-4.14,16.45-6.63c23.13-12.78,36.09-31.89,36.22-58.82c0.08-15.17,0.01-30.33,0.01-45.5c0.04,0,0.08,0,0.13,0
			C458.83,287.36,459.07,270.25,458.79,253.14z M236.67,48.11c0.29-9.8,8.18-18.89,19.17-18.89c10.54,0,19.31,8.93,19.32,18.93
			c0.01,10.98-8.35,20.25-19.32,20.24C245.07,68.39,236.66,59.66,236.67,48.11z M169.51,162.71c28.67-7.49,57.92-10.58,86.41-11.58
			c30.62,1.02,59.77,4.93,88.55,11.92c7.11,1.73,8.55,4.81,6.61,11.39c-3.17,10.78-6.34,21.62-8.39,32.64
			c-1.42,7.63-4.79,8.84-11.9,8.07c-23.5-2.56-47.08-6.04-70.62-6c-25.89,0.04-51.78,3.4-77.64,5.71
			c-10.59,0.94-10.57,1.41-13.23-8.67c-2.67-10.12-5.34-20.23-7.89-30.37C158.84,165.6,158.88,165.49,169.51,162.71z M372.35,307.37
			c0.45,0.82,0.84,1.66,1.24,2.61c2.06,4.82,0.13,10.62-4.65,12.77c-0.79,0.35-1.58,0.59-2.34,0.68c-3.26,0.4-6.51,0-9.44-3.63
			c-1.55-1.92-2.9-4.52-4.73-6.46c-7.43-7.87-18.51-7.12-25.07,1.56c-0.69,0.92-1.1,2.05-1.75,3c-3.54,5.18-8.25,7.22-13.99,4.12
			c-5.32-2.87-6.16-8.75-2.77-15.33c6.57-12.75,24.52-21.44,38.4-18.26C358.34,290.99,366.85,297.29,372.35,307.37z M168.02,274.73
			c17.62,0,31.9,14.28,31.9,31.9c0,17.62-14.28,31.9-31.9,31.9s-31.9-14.28-31.9-31.9C136.11,289.01,150.4,274.73,168.02,274.73z
			 M430.71,300.64c-0.09,0-0.17,0-0.26,0c0,15.56,0.04,31.12-0.01,46.68c-0.06,19.17-11.82,35.67-27.13,41.6
			c-26.17,9.97-31.93,12.46-53.18,19.17c-23.96,6.99-50.36,11.22-74.42,11.69c-21.24,0.42-39.37,0.77-60.34-1.93
			c-21.65-2.78-48.69-8.4-69.56-15c-18.26-5.77-29.42-10.97-46.57-19.57c-10.31-5.17-17.76-18.06-17.9-30.04
			c-0.39-35-1.37-70.07,0.33-105c1.5-30.78,18.32-53.65,44.34-69.88c5.19-3.24,7.14-2.41,8.45,3.69c2.44,11.39,5.55,22.64,8.7,33.85
			c1.37,4.86-0.42,6.96-4.86,8.39c-8.46,2.73-16.95,5.48-25.15,8.89c-9.43,3.92-14.26,10.98-14.22,21.74
			c0.09,30.72-0.18,61.45-0.61,92.17c-0.18,12.89,7.44,20.11,17.68,25c28.03,13.38,57.28,23.28,87.96,28.51
			c9.53,1.62,19.2,2.72,28.85,3.21c34.96,1.78,69.85-0.17,103.58-9.5c24.46-6.44,40.27-13,61.57-23.45
			c11.12-5.46,15.57-14.05,15.44-26.07c-0.32-29.95-0.49-59.9-0.34-89.85c0.05-10.74-4.71-17.89-14.23-21.77
			c-8.23-3.35-16.74-6.03-25.2-8.78c-4.37-1.42-6.24-3.55-4.86-8.45c3.16-11.21,6.22-22.47,8.68-33.85c1.29-5.95,3.15-7.01,8.4-3.73
			c27.6,17.25,43.64,41.48,44.79,74.44C431.17,268.73,430.71,284.69,430.71,300.64z"/>
		<linearGradient id="SVGID_2_" gradientUnits="userSpaceOnUse" x1="54.5437" y1="-74.0555" x2="481.2681" y2="284.0088">
			<stop  offset="0" style="stop-color:#7400B7"/>
			<stop  offset="0.2021" style="stop-color:#6930C2"/>
			<stop  offset="0.3749" style="stop-color:#5E61CD"/>
			<stop  offset="0.5836" style="stop-color:#538FD9"/>
			<stop  offset="0.77" style="stop-color:#4FA7DD"/>
			<stop  offset="0.9973" style="stop-color:#48BFE2"/>
		</linearGradient>
		<path class="st1" d="M469.26,285.41c0-14.36-0.19-28.73,0.07-43.08c0.18-10.14,1.82-10.7,12.11-9.2
			c24.94,3.64,31.5,10.12,30.45,36.87c-0.55,13.95,0.16,27.95-0.12,41.92c-0.32,15.85-6,22.41-21.33,25.62
			c-21.15,4.43-21.15,4.43-21.15-17.19c0-11.64,0-23.29,0-34.93C469.28,285.41,469.27,285.41,469.26,285.41z"/>
		<linearGradient id="SVGID_3_" gradientUnits="userSpaceOnUse" x1="-134.0698" y1="149.9848" x2="292.6552" y2="508.0497">
			<stop  offset="0" style="stop-color:#7400B7"/>
			<stop  offset="0.2021" style="stop-color:#6930C2"/>
			<stop  offset="0.3749" style="stop-color:#5E61CD"/>
			<stop  offset="0.5836" style="stop-color:#538FD9"/>
			<stop  offset="0.77" style="stop-color:#4FA7DD"/>
			<stop  offset="0.9973" style="stop-color:#48BFE2"/>
		</linearGradient>
		<path class="st2" d="M42.71,286.99c0,14.36,0.15,28.73-0.05,43.09c-0.13,9.47-2.03,10.92-11.16,9.45c-3.06-0.49-6.06-1.3-9.1-1.91
			c-16.16-3.25-22-9.93-22.19-26.01c-0.2-17.08-0.26-34.16-0.14-51.24c0.11-14.74,6.15-22.02,20.48-25.25
			c2.64-0.6,5.35-0.91,8.02-1.38c13.14-2.31,14.1-1.54,14.09,11.32c-0.01,13.97,0,27.95,0,41.92
			C42.67,286.99,42.69,286.99,42.71,286.99z"/>
	</g>
</g>
</svg>
